<mxfile host="app.diagrams.net" modified="2022-08-15T07:35:56.493Z" agent="5.0 (Macintosh; Intel Mac OS X 10_15_7) AppleWebKit/537.36 (KHTML, like Gecko) Chrome/104.0.0.0 Safari/537.36" etag="GNw12iqIqNojszigWYhy" version="20.2.3" type="github">
  <diagram name="Page-1" id="e7e014a7-5840-1c2e-5031-d8a46d1fe8dd">
    <mxGraphModel dx="2006" dy="1128" grid="1" gridSize="10" guides="1" tooltips="1" connect="1" arrows="1" fold="1" page="1" pageScale="1" pageWidth="1920" pageHeight="1200" background="none" math="0" shadow="0">
      <root>
        <mxCell id="0" />
        <mxCell id="1" parent="0" />
        <mxCell id="2" value="DB" style="swimlane;whiteSpace=wrap" parent="1" vertex="1">
          <mxGeometry x="164" y="128" width="280" height="572" as="geometry" />
        </mxCell>
        <mxCell id="wkmeNPRVQZwcSyjmbqJn-61" value="Mongodb" style="shape=datastore;whiteSpace=wrap;html=1;" vertex="1" parent="2">
          <mxGeometry x="41.5" y="262" width="98.5" height="58" as="geometry" />
        </mxCell>
        <mxCell id="wkmeNPRVQZwcSyjmbqJn-62" value="Clickhouse" style="shape=datastore;whiteSpace=wrap;html=1;" vertex="1" parent="2">
          <mxGeometry x="41.5" y="462" width="98.5" height="68" as="geometry" />
        </mxCell>
        <mxCell id="wkmeNPRVQZwcSyjmbqJn-63" value="Redis" style="shape=datastore;whiteSpace=wrap;html=1;" vertex="1" parent="2">
          <mxGeometry x="41.5" y="102" width="98.5" height="58" as="geometry" />
        </mxCell>
        <mxCell id="wkmeNPRVQZwcSyjmbqJn-123" value="" style="edgeStyle=orthogonalEdgeStyle;html=1;verticalAlign=bottom;endArrow=open;endSize=8;strokeColor=#ff0000;rounded=0;entryX=0.5;entryY=0;entryDx=0;entryDy=0;" edge="1" parent="2">
          <mxGeometry relative="1" as="geometry">
            <mxPoint x="90.75" y="262" as="targetPoint" />
            <mxPoint x="90.25" y="160" as="sourcePoint" />
            <Array as="points">
              <mxPoint x="90" y="182" />
              <mxPoint x="90" y="182" />
            </Array>
          </mxGeometry>
        </mxCell>
        <mxCell id="wkmeNPRVQZwcSyjmbqJn-127" value="" style="edgeStyle=orthogonalEdgeStyle;html=1;verticalAlign=bottom;endArrow=open;endSize=8;strokeColor=#ff0000;rounded=0;entryX=0.5;entryY=0;entryDx=0;entryDy=0;" edge="1" parent="2" target="wkmeNPRVQZwcSyjmbqJn-62">
          <mxGeometry relative="1" as="geometry">
            <mxPoint x="90.25" y="382" as="targetPoint" />
            <mxPoint x="90.25" y="322" as="sourcePoint" />
          </mxGeometry>
        </mxCell>
        <mxCell id="wkmeNPRVQZwcSyjmbqJn-136" value="" style="edgeStyle=orthogonalEdgeStyle;html=1;verticalAlign=bottom;endArrow=open;endSize=8;strokeColor=#ff0000;rounded=0;" edge="1" parent="2" target="wkmeNPRVQZwcSyjmbqJn-63">
          <mxGeometry relative="1" as="geometry">
            <mxPoint x="101.5" y="169" as="targetPoint" />
            <mxPoint x="90.5" y="261" as="sourcePoint" />
          </mxGeometry>
        </mxCell>
        <mxCell id="wkmeNPRVQZwcSyjmbqJn-138" value="" style="edgeStyle=orthogonalEdgeStyle;html=1;align=left;verticalAlign=bottom;endArrow=open;endSize=8;strokeColor=#ff0000;rounded=0;" edge="1" parent="2">
          <mxGeometry x="-1" relative="1" as="geometry">
            <mxPoint x="296.5" y="412" as="targetPoint" />
            <mxPoint x="96" y="202" as="sourcePoint" />
            <Array as="points">
              <mxPoint x="162" y="202" />
              <mxPoint x="162" y="412" />
              <mxPoint x="296" y="412" />
            </Array>
          </mxGeometry>
        </mxCell>
        <mxCell id="3" value="Application" style="swimlane;whiteSpace=wrap" parent="1" vertex="1">
          <mxGeometry x="444.5" y="128" width="605.5" height="572" as="geometry" />
        </mxCell>
        <mxCell id="wkmeNPRVQZwcSyjmbqJn-80" value="" style="line;strokeWidth=2;html=1;" vertex="1" parent="3">
          <mxGeometry y="301" width="590" height="10" as="geometry" />
        </mxCell>
        <mxCell id="wkmeNPRVQZwcSyjmbqJn-81" value="&amp;nbsp;Front-end" style="text;html=1;align=center;verticalAlign=middle;resizable=0;points=[];autosize=1;strokeColor=none;fillColor=none;" vertex="1" parent="3">
          <mxGeometry x="5.5" y="37" width="80" height="30" as="geometry" />
        </mxCell>
        <mxCell id="wkmeNPRVQZwcSyjmbqJn-82" value="Back-end" style="text;html=1;align=center;verticalAlign=middle;resizable=0;points=[];autosize=1;strokeColor=none;fillColor=none;" vertex="1" parent="3">
          <mxGeometry x="15.5" y="322" width="70" height="30" as="geometry" />
        </mxCell>
        <mxCell id="wkmeNPRVQZwcSyjmbqJn-84" value="Components" style="rounded=1;whiteSpace=wrap;html=1;" vertex="1" parent="3">
          <mxGeometry x="37.75" y="72" width="114.5" height="48" as="geometry" />
        </mxCell>
        <mxCell id="wkmeNPRVQZwcSyjmbqJn-85" value="Pages" style="rounded=1;whiteSpace=wrap;html=1;" vertex="1" parent="3">
          <mxGeometry x="35.5" y="152" width="514.5" height="50" as="geometry" />
        </mxCell>
        <mxCell id="wkmeNPRVQZwcSyjmbqJn-86" value="Static resource" style="rounded=1;whiteSpace=wrap;html=1;" vertex="1" parent="3">
          <mxGeometry x="235.5" y="72" width="114.5" height="48" as="geometry" />
        </mxCell>
        <mxCell id="wkmeNPRVQZwcSyjmbqJn-88" value="&lt;span style=&quot;&quot;&gt;Middleware&lt;/span&gt;" style="rounded=1;whiteSpace=wrap;html=1;" vertex="1" parent="3">
          <mxGeometry x="425.5" y="72" width="114.5" height="48" as="geometry" />
        </mxCell>
        <mxCell id="wkmeNPRVQZwcSyjmbqJn-89" value="Router" style="rounded=1;whiteSpace=wrap;html=1;" vertex="1" parent="3">
          <mxGeometry x="35.5" y="212" width="514.5" height="48" as="geometry" />
        </mxCell>
        <mxCell id="wkmeNPRVQZwcSyjmbqJn-93" value="" style="endArrow=classic;html=1;rounded=0;entryX=0.115;entryY=-0.06;entryDx=0;entryDy=0;entryPerimeter=0;" edge="1" parent="3" target="wkmeNPRVQZwcSyjmbqJn-85">
          <mxGeometry width="50" height="50" relative="1" as="geometry">
            <mxPoint x="94.5" y="120" as="sourcePoint" />
            <mxPoint x="95.5" y="142" as="targetPoint" />
          </mxGeometry>
        </mxCell>
        <mxCell id="wkmeNPRVQZwcSyjmbqJn-94" value="" style="endArrow=classic;html=1;rounded=0;entryX=0.115;entryY=-0.06;entryDx=0;entryDy=0;entryPerimeter=0;" edge="1" parent="3">
          <mxGeometry width="50" height="50" relative="1" as="geometry">
            <mxPoint x="292.25" y="120" as="sourcePoint" />
            <mxPoint x="292.4175" y="149" as="targetPoint" />
          </mxGeometry>
        </mxCell>
        <mxCell id="wkmeNPRVQZwcSyjmbqJn-102" value="" style="endArrow=classic;html=1;rounded=0;entryX=0.115;entryY=-0.06;entryDx=0;entryDy=0;entryPerimeter=0;" edge="1" parent="3">
          <mxGeometry width="50" height="50" relative="1" as="geometry">
            <mxPoint x="485.5" y="123" as="sourcePoint" />
            <mxPoint x="485.6675" y="152" as="targetPoint" />
          </mxGeometry>
        </mxCell>
        <mxCell id="wkmeNPRVQZwcSyjmbqJn-120" value="" style="shape=line;html=1;strokeWidth=6;strokeColor=#ff0000;" vertex="1" parent="3">
          <mxGeometry x="192.75" y="266" width="200" height="10" as="geometry" />
        </mxCell>
        <mxCell id="wkmeNPRVQZwcSyjmbqJn-121" value="" style="edgeStyle=orthogonalEdgeStyle;html=1;verticalAlign=bottom;endArrow=open;endSize=8;strokeColor=#ff0000;rounded=0;entryX=0.48;entryY=-0.08;entryDx=0;entryDy=0;entryPerimeter=0;" edge="1" source="wkmeNPRVQZwcSyjmbqJn-120" parent="3" target="wkmeNPRVQZwcSyjmbqJn-157">
          <mxGeometry relative="1" as="geometry">
            <mxPoint x="292.75" y="346" as="targetPoint" />
          </mxGeometry>
        </mxCell>
        <mxCell id="wkmeNPRVQZwcSyjmbqJn-131" value="" style="shape=line;html=1;strokeWidth=6;strokeColor=#ff0000;direction=south;" vertex="1" parent="3">
          <mxGeometry x="15.5" y="372" width="10" height="98" as="geometry" />
        </mxCell>
        <mxCell id="wkmeNPRVQZwcSyjmbqJn-157" value="Next.js" style="rounded=1;whiteSpace=wrap;html=1;" vertex="1" parent="3">
          <mxGeometry x="45.5" y="372" width="514.5" height="50" as="geometry" />
        </mxCell>
        <mxCell id="wkmeNPRVQZwcSyjmbqJn-158" value="Module" style="shape=module;align=left;spacingLeft=20;align=center;verticalAlign=top;" vertex="1" parent="3">
          <mxGeometry x="265.5" y="442" width="100" height="50" as="geometry" />
        </mxCell>
        <mxCell id="wkmeNPRVQZwcSyjmbqJn-160" value="package" style="shape=folder;fontStyle=1;spacingTop=10;tabWidth=40;tabHeight=14;tabPosition=left;html=1;" vertex="1" parent="3">
          <mxGeometry x="95.5" y="312" width="70" height="50" as="geometry" />
        </mxCell>
        <mxCell id="wkmeNPRVQZwcSyjmbqJn-161" value="&lt;p style=&quot;margin:0px;margin-top:6px;text-align:center;&quot;&gt;&lt;b&gt;Component&lt;/b&gt;&lt;/p&gt;&lt;hr/&gt;&lt;p style=&quot;margin:0px;margin-left:8px;&quot;&gt;+ Attribute1: Type&lt;br/&gt;+ Attribute2: Type&lt;/p&gt;" style="align=left;overflow=fill;html=1;dropTarget=0;" vertex="1" parent="3">
          <mxGeometry x="45.5" y="442" width="180" height="90" as="geometry" />
        </mxCell>
        <mxCell id="wkmeNPRVQZwcSyjmbqJn-162" value="" style="shape=component;jettyWidth=8;jettyHeight=4;" vertex="1" parent="wkmeNPRVQZwcSyjmbqJn-161">
          <mxGeometry x="1" width="20" height="20" relative="1" as="geometry">
            <mxPoint x="-24" y="4" as="offset" />
          </mxGeometry>
        </mxCell>
        <mxCell id="wkmeNPRVQZwcSyjmbqJn-163" value="package" style="shape=folder;fontStyle=1;spacingTop=10;tabWidth=40;tabHeight=14;tabPosition=left;html=1;" vertex="1" parent="3">
          <mxGeometry x="325.5" y="312" width="70" height="50" as="geometry" />
        </mxCell>
        <mxCell id="wkmeNPRVQZwcSyjmbqJn-164" value="package" style="shape=folder;fontStyle=1;spacingTop=10;tabWidth=40;tabHeight=14;tabPosition=left;html=1;" vertex="1" parent="3">
          <mxGeometry x="185.5" y="311" width="70" height="50" as="geometry" />
        </mxCell>
        <mxCell id="wkmeNPRVQZwcSyjmbqJn-168" value="package" style="shape=folder;fontStyle=1;spacingTop=10;tabWidth=40;tabHeight=14;tabPosition=left;html=1;" vertex="1" parent="3">
          <mxGeometry x="435.5" y="312" width="70" height="50" as="geometry" />
        </mxCell>
        <mxCell id="wkmeNPRVQZwcSyjmbqJn-171" value="" style="ellipse;html=1;shape=startState;fillColor=#000000;strokeColor=#ff0000;" vertex="1" parent="3">
          <mxGeometry x="575.5" y="291" width="30" height="30" as="geometry" />
        </mxCell>
        <mxCell id="wkmeNPRVQZwcSyjmbqJn-177" value="Middleware" style="shape=module;align=left;spacingLeft=20;align=center;verticalAlign=top;" vertex="1" parent="3">
          <mxGeometry x="415.5" y="442" width="100" height="50" as="geometry" />
        </mxCell>
        <mxCell id="4" value="Gateway" style="swimlane;whiteSpace=wrap" parent="1" vertex="1">
          <mxGeometry x="1050" y="128" width="275.5" height="572" as="geometry" />
        </mxCell>
        <mxCell id="wkmeNPRVQZwcSyjmbqJn-176" value="" style="edgeStyle=orthogonalEdgeStyle;html=1;verticalAlign=bottom;endArrow=open;endSize=8;strokeColor=#ff0000;rounded=0;" edge="1" parent="4">
          <mxGeometry relative="1" as="geometry">
            <mxPoint x="56" y="307" as="targetPoint" />
            <mxPoint x="-4" y="307" as="sourcePoint" />
          </mxGeometry>
        </mxCell>
        <mxCell id="wkmeNPRVQZwcSyjmbqJn-180" value="" style="html=1;points=[];perimeter=orthogonalPerimeter;" vertex="1" parent="4">
          <mxGeometry x="60" y="276" width="10" height="60" as="geometry" />
        </mxCell>
        <mxCell id="wkmeNPRVQZwcSyjmbqJn-181" value="" style="html=1;verticalAlign=bottom;endArrow=block;entryX=1;entryY=0;rounded=0;" edge="1" target="wkmeNPRVQZwcSyjmbqJn-180" parent="4">
          <mxGeometry relative="1" as="geometry">
            <mxPoint x="120" y="276" as="sourcePoint" />
          </mxGeometry>
        </mxCell>
        <mxCell id="wkmeNPRVQZwcSyjmbqJn-182" value="" style="html=1;verticalAlign=bottom;endArrow=open;dashed=1;endSize=8;exitX=1;exitY=0.95;rounded=0;" edge="1" source="wkmeNPRVQZwcSyjmbqJn-180" parent="4">
          <mxGeometry relative="1" as="geometry">
            <mxPoint x="120" y="333" as="targetPoint" />
          </mxGeometry>
        </mxCell>
        <mxCell id="wkmeNPRVQZwcSyjmbqJn-183" value="Nginx" style="shape=cylinder3;whiteSpace=wrap;html=1;boundedLbl=1;backgroundOutline=1;size=15;" vertex="1" parent="4">
          <mxGeometry x="130" y="214" width="110" height="184" as="geometry" />
        </mxCell>
      </root>
    </mxGraphModel>
  </diagram>
</mxfile>
